<svg version="1.2" xmlns="http://www.w3.org/2000/svg" viewBox="0 0 434 860" width="434" height="860">
	<title>phone_14_01</title>
	<defs>
		<linearGradient id="g1" x2="1" gradientUnits="userSpaceOnUse" gradientTransform="matrix(0,103.557,-2.452,0,427.668,219.737)">
			<stop offset="0" stop-color="#68595f"/>
			<stop offset=".019" stop-color="#896e80"/>
			<stop offset=".038" stop-color="#5e3b5b"/>
			<stop offset=".082" stop-color="#2b1d2a"/>
			<stop offset=".105" stop-color="#704a6a"/>
			<stop offset=".905" stop-color="#615060"/>
			<stop offset=".939" stop-color="#2b1d2a"/>
			<stop offset=".965" stop-color="#5e3b5b"/>
			<stop offset=".983" stop-color="#845675"/>
			<stop offset="1" stop-color="#5b4a5c"/>
		</linearGradient>
		<linearGradient id="g2" x2="1" gradientUnits="userSpaceOnUse" gradientTransform="matrix(0,103.535,-1.226,0,428.894,219.763)">
			<stop offset="0" stop-color="#676067"/>
			<stop offset=".064" stop-color="#654e63"/>
			<stop offset=".186" stop-color="#786f77"/>
			<stop offset=".806" stop-color="#786f77"/>
			<stop offset=".919" stop-color="#654e63"/>
			<stop offset="1" stop-color="#676067"/>
		</linearGradient>
		<linearGradient id="g3" x2="1" gradientUnits="userSpaceOnUse" gradientTransform="matrix(0,65.6,-1.4,0,3.516,197.939)">
			<stop offset="0" stop-color="#68595f"/>
			<stop offset=".019" stop-color="#896e80"/>
			<stop offset=".038" stop-color="#5e3b5b"/>
			<stop offset=".082" stop-color="#2d1e2c"/>
			<stop offset=".105" stop-color="#704a6a"/>
			<stop offset=".905" stop-color="#615060"/>
			<stop offset=".939" stop-color="#2d1e2c"/>
			<stop offset=".965" stop-color="#5e3b5b"/>
			<stop offset=".983" stop-color="#845675"/>
			<stop offset="1" stop-color="#5b4a5c"/>
		</linearGradient>
		<linearGradient id="g4" x2="1" gradientUnits="userSpaceOnUse" gradientTransform="matrix(0,65.586,-0.7,0,2.816,197.956)">
			<stop offset="0" stop-color="#676067"/>
			<stop offset=".064" stop-color="#654e63"/>
			<stop offset=".186" stop-color="#786f77"/>
			<stop offset=".806" stop-color="#786f77"/>
			<stop offset=".919" stop-color="#654e63"/>
			<stop offset="1" stop-color="#676067"/>
		</linearGradient>
		<linearGradient id="g5" x2="1" gradientUnits="userSpaceOnUse" gradientTransform="matrix(0,-65.603,1.5,0,-1428.927,263.559)">
			<stop offset="0" stop-color="#68595f"/>
			<stop offset=".053" stop-color="#2d1e2c"/>
			<stop offset=".518" stop-color="#5e3b5b"/>
			<stop offset=".965" stop-color="#2d1e2c"/>
			<stop offset="1" stop-color="#5b4a5c"/>
		</linearGradient>
		<linearGradient id="g6" x2="1" gradientUnits="userSpaceOnUse" gradientTransform="matrix(0,65.6,-1.4,0,3.516,280.471)">
			<stop offset="0" stop-color="#68595f"/>
			<stop offset=".019" stop-color="#896e80"/>
			<stop offset=".038" stop-color="#5e3b5b"/>
			<stop offset=".082" stop-color="#2d1e2c"/>
			<stop offset=".105" stop-color="#704a6a"/>
			<stop offset=".905" stop-color="#615060"/>
			<stop offset=".939" stop-color="#2d1e2c"/>
			<stop offset=".965" stop-color="#5e3b5b"/>
			<stop offset=".983" stop-color="#845675"/>
			<stop offset="1" stop-color="#5b4a5c"/>
		</linearGradient>
		<linearGradient id="g7" x2="1" gradientUnits="userSpaceOnUse" gradientTransform="matrix(0,65.586,-0.7,0,2.816,280.488)">
			<stop offset="0" stop-color="#676067"/>
			<stop offset=".064" stop-color="#654e63"/>
			<stop offset=".186" stop-color="#786f77"/>
			<stop offset=".806" stop-color="#786f77"/>
			<stop offset=".919" stop-color="#654e63"/>
			<stop offset="1" stop-color="#676067"/>
		</linearGradient>
		<linearGradient id="g8" x2="1" gradientUnits="userSpaceOnUse" gradientTransform="matrix(0,-65.603,1.5,0,-1428.927,346.091)">
			<stop offset="0" stop-color="#68595f"/>
			<stop offset=".053" stop-color="#2d1e2c"/>
			<stop offset=".518" stop-color="#5e3b5b"/>
			<stop offset=".965" stop-color="#2d1e2c"/>
			<stop offset="1" stop-color="#5b4a5c"/>
		</linearGradient>
		<linearGradient id="g9" x2="1" gradientUnits="userSpaceOnUse" gradientTransform="matrix(0,33.671,-1.4,0,3.516,135.957)">
			<stop offset="0" stop-color="#68595f"/>
			<stop offset=".019" stop-color="#896e80"/>
			<stop offset=".038" stop-color="#5e3b5b"/>
			<stop offset=".082" stop-color="#2d1e2c"/>
			<stop offset=".105" stop-color="#704a6a"/>
			<stop offset=".905" stop-color="#615060"/>
			<stop offset=".939" stop-color="#2d1e2c"/>
			<stop offset=".965" stop-color="#5e3b5b"/>
			<stop offset=".983" stop-color="#845675"/>
			<stop offset="1" stop-color="#5b4a5c"/>
		</linearGradient>
		<linearGradient id="g10" x2="1" gradientUnits="userSpaceOnUse" gradientTransform="matrix(0,33.658,-0.7,0,2.816,135.974)">
			<stop offset="0" stop-color="#676067"/>
			<stop offset=".064" stop-color="#654e63"/>
			<stop offset=".186" stop-color="#786f77"/>
			<stop offset=".806" stop-color="#786f77"/>
			<stop offset=".919" stop-color="#654e63"/>
			<stop offset="1" stop-color="#676067"/>
		</linearGradient>
		<linearGradient id="g11" x2="1" gradientUnits="userSpaceOnUse" gradientTransform="matrix(0,-33.674,1.5,0,-372.309,169.647)">
			<stop offset="0" stop-color="#68595f"/>
			<stop offset=".053" stop-color="#2d1e2c"/>
			<stop offset=".518" stop-color="#5e3b5b"/>
			<stop offset=".965" stop-color="#2d1e2c"/>
			<stop offset="1" stop-color="#5b4a5c"/>
		</linearGradient>
		<linearGradient id="g12" x2="1" gradientUnits="userSpaceOnUse" gradientTransform="matrix(0,-11.723,11.722,0,237.732,52.269)">
			<stop offset="0" stop-color="#666666"/>
			<stop offset="1" stop-color="#010104"/>
		</linearGradient>
		<linearGradient id="g13" x2="1" gradientUnits="userSpaceOnUse" gradientTransform="matrix(4.829,5.613,-5.614,4.829,241.364,43.353)">
			<stop offset="0" stop-color="#171919"/>
			<stop offset="1" stop-color="#4e4f51"/>
		</linearGradient>
		<linearGradient id="g14" x2="1" gradientUnits="userSpaceOnUse" gradientTransform="matrix(0,6.698,-6.698,0,247.083,43.496)">
			<stop offset="0" stop-color="#0b131c"/>
			<stop offset="1" stop-color="#354039"/>
		</linearGradient>
		<linearGradient id="g15" x2="1" gradientUnits="userSpaceOnUse" gradientTransform="matrix(-5.95,-5.95,5.95,-5.95,243.681,52.638)">
			<stop offset="0" stop-color="#231f20"/>
			<stop offset=".785" stop-color="#0095ee"/>
			<stop offset="1" stop-color="#231f20"/>
		</linearGradient>
		<radialGradient id="g16" cx="0" cy="0" r="1" gradientUnits="userSpaceOnUse" gradientTransform="matrix(2.975,0,0,2.975,243.681,46.688)">
			<stop offset="0" stop-color="#231f20"/>
			<stop offset=".733" stop-color="#00adee"/>
			<stop offset="1" stop-color="#231f20"/>
		</radialGradient>
		<radialGradient id="g17" cx="0" cy="0" r="1" gradientUnits="userSpaceOnUse" gradientTransform="matrix(1.063,0,0,1.063,245.316,48.24)">
			<stop offset="0" stop-color="#cccccc"/>
			<stop offset="1" stop-color="#000000"/>
		</radialGradient>
	</defs>
	<style>
		.s0 { fill: #5e465d } 
		.s1 { mix-blend-mode: screen;fill: #706f6f } 
		.s2 { fill: #1d1d1b } 
		.s3 { fill: #ffffff } 
		.s4 { fill: url(#g1) } 
		.s5 { fill: url(#g2) } 
		.s6 { fill: url(#g3) } 
		.s7 { fill: url(#g4) } 
		.s8 { fill: url(#g5) } 
		.s9 { fill: url(#g6) } 
		.s10 { fill: url(#g7) } 
		.s11 { fill: url(#g8) } 
		.s12 { fill: url(#g9) } 
		.s13 { fill: url(#g10) } 
		.s14 { fill: url(#g11) } 
		.s15 { fill: url(#g12) } 
		.s16 { fill: url(#g13) } 
		.s17 { fill: url(#g14) } 
		.s18 { fill: url(#g15) } 
		.s19 { mix-blend-mode: multiply;fill: url(#g16) } 
		.s20 { mix-blend-mode: screen;fill: url(#g17) } 
	</style>
	<g id="Layer 1">
		<path id="&lt;Path&gt;" class="s0" d="m358.1 859.4h-284.5c-37.1 0-67.2-30-67.2-67.1v-725c0-37 30.1-67.1 67.2-67.1h284.5c37.1 0 67.1 30.1 67.1 67.1v725c0 37.1-30 67.1-67.1 67.1z"/>
		<path id="&lt;Compound Path&gt;" fill-rule="evenodd" class="s1" d="m423.2 67.9v723.9c0 36.2-29.4 65.6-65.6 65.6h-283.5c-36.3 0-65.7-29.4-65.7-65.6v-723.9c0-36.3 29.4-65.7 65.7-65.7h283.5c36.2 0 65.6 29.4 65.6 65.7zm-2 0.5c0-35.5-28.7-64.2-64.2-64.2h-282.4c-35.4 0-64.2 28.7-64.2 64.2v722.8c0 35.5 28.8 64.2 64.2 64.2h282.4c35.5 0 64.2-28.7 64.2-64.2z"/>
		<path id="&lt;Path&gt;" class="s2" d="m356.4 852.9h-281.2c-34.1 0-61.7-27.7-61.7-61.8v-722.6c0-34.1 27.6-61.7 61.7-61.7h281.2c34.1 0 61.7 27.6 61.7 61.7v722.6c0 34.1-27.6 61.8-61.7 61.8z"/>
		<path id="&lt;Path&gt;" class="s3" d="m324 20.5h32.7c26.6 0 48.1 21.5 48.1 48.1v722.5c0 26.5-21.5 48.1-48.1 48.1h-281.8c-26.5 0-48.1-21.6-48.1-48.1v-722.5c0-26.6 21.6-48.1 48.1-48.1 10.6 0 21.2 0 32.3 0z"/>
		<g id="&lt;Group&gt;">
			<g id="&lt;Group&gt;">
				<path id="&lt;Path&gt;" fill-rule="evenodd" class="s4" d="m427.7 219.7v103.6h-2.5v-103.6z"/>
				<path id="&lt;Path&gt;" class="s5" d="m427.7 323.3v-103.5l1.2 1.3c-0.6 11-0.6 89.9 0 100.9z"/>
			</g>
			<g id="&lt;Group&gt;">
				<path id="&lt;Path&gt;" fill-rule="evenodd" class="s6" d="m4.9 197.9v65.6h-1.4v-65.6z"/>
				<path id="&lt;Path&gt;" class="s7" d="m3.5 263.5v-65.5l-0.7 0.8c0.4 7 0.3 56.9 0 63.9z"/>
				<path id="&lt;Path&gt;" fill-rule="evenodd" class="s8" d="m6.4 198v65.6h-1.5v-65.6z"/>
			</g>
			<g id="&lt;Group&gt;">
				<path id="&lt;Path&gt;" fill-rule="evenodd" class="s9" d="m4.9 280.5v65.6h-1.4v-65.6z"/>
				<path id="&lt;Path&gt;" class="s10" d="m3.5 346.1v-65.6l-0.7 0.8c0.4 7 0.3 57 0 63.9z"/>
				<path id="&lt;Path&gt;" fill-rule="evenodd" class="s11" d="m6.4 280.5v65.6h-1.5v-65.6z"/>
			</g>
			<g id="&lt;Group&gt;">
				<path id="&lt;Path&gt;" fill-rule="evenodd" class="s12" d="m4.9 136v33.6h-1.4v-33.6z"/>
				<path id="&lt;Path&gt;" class="s13" d="m3.5 169.6v-33.6l-0.7 0.8c0.4 6.6 0.3 25.4 0 32z"/>
				<path id="&lt;Path&gt;" fill-rule="evenodd" class="s14" d="m6.4 136v33.6h-1.5v-33.6z"/>
			</g>
		</g>
		<g id="&lt;Group&gt;" style="mix-blend-mode: multiply">
			<path id="&lt;Path&gt;" class="s2" d="m247.5 60.3h-67c-7.5 0-13.6-6.1-13.6-13.6 0-7.5 6.1-13.6 13.6-13.6h67c7.5 0 13.6 6.1 13.6 13.6 0 7.5-6.1 13.6-13.6 13.6z"/>
			<g id="&lt;Group&gt;">
				<path id="&lt;Path&gt;" fill-rule="evenodd" class="s15" d="m243.7 52.6c-3.3 0-6-2.6-6-5.9 0-3.3 2.7-6 6-6 3.3 0 5.9 2.7 5.9 6 0 3.3-2.6 5.9-5.9 5.9z"/>
				<path id="&lt;Mesh&gt;" class="s16" d="m239.8 50.6c0.6 0.6 1.3 1.1 2.2 1.4-0.2-1.1-0.7-1.9-0.8-3-0.9-0.1-2.2-0.3-2.8-0.6 0.3 0.8 0.7 1.6 1.4 2.2zm-1.4-2.2c0.6 0.3 1.9 0.5 2.8 0.6-0.1-1.9-0.2-3.8 0.1-5.7-0.9 0.2-1.7 0.2-2.5 0.7-0.7 1.3-0.9 2.9-0.4 4.4zm0.4-4.4c0.8-0.5 1.6-0.5 2.5-0.7 0.1-0.6 0.6-1.4 0.7-1.9-0.9 0.3-1.6 0.7-2.3 1.4q-0.5 0.5-0.9 1.2zm3.2 8c1.2 0.4 2.4 0.3 3.6-0.1 0.3-0.8 0.5-1.7 0.6-2.9-1.2 0.2-3.8 0.2-5 0 0.1 1.1 0.6 1.9 0.8 3zm-0.8-3c1.2 0.2 3.8 0.2 5 0 0.2-2 0.2-4.3-0.2-5.8-1.4-0.3-3.4-0.2-4.7 0.1-0.3 1.9-0.2 3.8-0.1 5.7zm0.1-5.7c1.3-0.3 3.3-0.4 4.7-0.1-0.1-0.5-0.2-1.3-0.4-1.7-1.2-0.4-2.4-0.5-3.6-0.1-0.1 0.5-0.6 1.3-0.7 1.9zm4.3 8.6c0.7-0.3 1.4-0.7 2-1.3 0.7-0.6 1.1-1.4 1.4-2.2-0.7 0.2-1.9 0.5-2.8 0.6-0.1 1.2-0.3 2.1-0.6 2.9zm0.6-2.9c0.9-0.1 2.1-0.4 2.8-0.6 0.4-1.5 0.3-3.1-0.5-4.4-0.7-0.5-1.5-0.6-2.5-0.8 0.4 1.5 0.4 3.8 0.2 5.8zm-0.2-5.8c1 0.2 1.8 0.3 2.5 0.8q-0.3-0.7-0.9-1.2c-0.6-0.6-1.3-1.1-2-1.3 0.2 0.4 0.3 1.2 0.4 1.7z"/>
				<path id="&lt;Path&gt;" fill-rule="evenodd" class="s17" d="m243.7 50.1c-1.9 0-3.4-1.5-3.4-3.4 0-1.9 1.5-3.4 3.4-3.4 1.9 0 3.4 1.5 3.4 3.4 0 1.9-1.5 3.4-3.4 3.4z"/>
				<g id="Camera 00000181771962106803296260000008551096653390836141 ">
					<path id="&lt;Path&gt;" fill-rule="evenodd" class="s18" d="m243.7 49.7c-1.7 0-3-1.4-3-3 0-1.7 1.3-3 3-3 1.6 0 3 1.3 3 3 0 1.6-1.4 3-3 3z"/>
					<path id="&lt;Path&gt;" fill-rule="evenodd" class="s19" d="m243.7 49.7c-1.7 0-3-1.4-3-3 0-1.7 1.3-3 3-3 1.6 0 3 1.3 3 3 0 1.6-1.4 3-3 3z"/>
				</g>
				<path id="&lt;Path&gt;" fill-rule="evenodd" class="s20" d="m245.3 49.3c-0.6 0-1-0.5-1-1.1 0-0.5 0.4-1 1-1 0.6 0 1.1 0.5 1.1 1 0 0.6-0.5 1.1-1.1 1.1z"/>
			</g>
		</g>
	</g>
</svg>